<svg xmlns="http://www.w3.org/2000/svg" xmlns:svg="http://www.w3.org/2000/svg" viewBox="0 0 1400 700"><g id="wales-wc-code-blocks-group"><rect width="20" height="20" x="810" y="120" rx="1" class="block-width-30 block-index-2" style="fill: red;"/><rect width="20" height="20" x="840" y="120" rx="1" class="block-width-30 block-index-1" style="fill: red;"/><rect width="20" height="20" x="1080" y="120" rx="1" class="block-width-30 block-index-2" style="fill: red;"/><rect width="20" height="20" x="1110" y="120" rx="1" class="block-width-30 block-index-1" style="fill: red;"/><rect width="20" height="20" x="1230" y="120" rx="1" class="block-width-30 block-index-2" style="fill: red;"/><rect width="20" height="20" x="1260" y="120" rx="1" class="block-width-30 block-index-1" style="fill: red;"/><rect width="80" height="20" x="660" y="150" rx="1" class="block-width-90 block-index-1" style="fill: red;"/><rect width="20" height="20" x="750" y="150" rx="1" class="block-width-30 block-index-1" style="fill: red;"/><rect width="50" height="20" x="780" y="150" rx="1" class="block-width-60 block-index-2" style="fill: red;"/><rect width="50" height="20" x="1020" y="150" rx="1" class="block-width-60 block-index-3" style="fill: red;"/><rect width="20" height="20" x="1080" y="150" rx="1" class="block-width-30 block-index-1" style="fill: red;"/><rect width="20" height="20" x="1110" y="150" rx="1" class="block-width-30 block-index-2" style="fill: red;"/><rect width="50" height="20" x="1170" y="150" rx="1" class="block-width-60 block-index-2" style="fill: red;"/><rect width="20" height="20" x="1230" y="150" rx="1" class="block-width-30 block-index-1" style="fill: red;"/><rect width="110" height="20" x="540" y="180" rx="1" class="block-width-120 block-index-2" style="fill: red;"/><rect width="20" height="20" x="660" y="180" rx="1" class="block-width-30 block-index-2" style="fill: red;"/><rect width="50" height="20" x="690" y="180" rx="1" class="block-width-60 block-index-1" style="fill: red;"/><rect width="20" height="20" x="750" y="180" rx="1" class="block-width-30 block-index-2" style="fill: red;"/><rect width="50" height="20" x="780" y="180" rx="1" class="block-width-60 block-index-2" style="fill: red;"/><rect width="20" height="20" x="840" y="180" rx="1" class="block-width-30 block-index-2" style="fill: red;"/><rect width="80" height="20" x="990" y="180" rx="1" class="block-width-90 block-index-2" style="fill: red;"/><rect width="20" height="20" x="1080" y="180" rx="1" class="block-width-30 block-index-1" style="fill: red;"/><rect width="50" height="20" x="1110" y="180" rx="1" class="block-width-60 block-index-2" style="fill: red;"/><rect width="20" height="20" x="1170" y="180" rx="1" class="block-width-30 block-index-1" style="fill: red;"/><rect width="20" height="20" x="1200" y="180" rx="1" class="block-width-30 block-index-2" style="fill: red;"/><rect width="20" height="20" x="1320" y="180" rx="1" class="block-width-30 block-index-1" style="fill: red;"/><rect width="20" height="20" x="1350" y="180" rx="1" class="block-width-30 block-index-2" style="fill: red;"/><rect width="50" height="20" x="510" y="210" rx="1" class="block-width-60 block-index-3" style="fill: red;"/><rect width="110" height="20" x="570" y="210" rx="1" class="block-width-120 block-index-1" style="fill: red;"/><rect width="80" height="20" x="690" y="210" rx="1" class="block-width-90 block-index-3" style="fill: red;"/><rect width="50" height="20" x="780" y="210" rx="1" class="block-width-60 block-index-3" style="fill: red;"/><rect width="20" height="20" x="840" y="210" rx="1" class="block-width-30 block-index-1" style="fill: red;"/><rect width="110" height="20" x="930" y="210" rx="1" class="block-width-120 block-index-2" style="fill: red;"/><rect width="80" height="20" x="1050" y="210" rx="1" class="block-width-90 block-index-2" style="fill: red;"/><rect width="20" height="20" x="1140" y="210" rx="1" class="block-width-30 block-index-1" style="fill: red;"/><rect width="80" height="20" x="1170" y="210" rx="1" class="block-width-90 block-index-3" style="fill: red;"/><rect width="80" height="20" x="1290" y="210" rx="1" class="block-width-90 block-index-2" style="fill: red;"/><rect width="80" height="20" x="660" y="240" rx="1" class="block-width-90 block-index-1" style="fill: red;"/><rect width="20" height="20" x="750" y="240" rx="1" class="block-width-30 block-index-1" style="fill: red;"/><rect width="50" height="20" x="780" y="240" rx="1" class="block-width-60 block-index-2" style="fill: red;"/><rect width="20" height="20" x="840" y="240" rx="1" class="block-width-30 block-index-2" style="fill: red;"/><rect width="110" height="20" x="900" y="240" rx="1" class="block-width-120 block-index-1" style="fill: red;"/><rect width="80" height="20" x="1020" y="240" rx="1" class="block-width-90 block-index-1" style="fill: red;"/><rect width="50" height="20" x="1110" y="240" rx="1" class="block-width-60 block-index-3" style="fill: red;"/><rect width="20" height="20" x="1170" y="240" rx="1" class="block-width-30 block-index-1" style="fill: red;"/><rect width="50" height="20" x="1260" y="240" rx="1" class="block-width-60 block-index-3" style="fill: red;"/><rect width="20" height="20" x="1320" y="240" rx="1" class="block-width-30 block-index-2" style="fill: red;"/><rect width="20" height="20" x="1350" y="240" rx="1" class="block-width-30 block-index-1" style="fill: red;"/><rect width="20" height="20" x="510" y="270" rx="1" class="block-width-30 block-index-2" style="fill: red;"/><rect width="80" height="20" x="540" y="270" rx="1" class="block-width-90 block-index-1" style="fill: red;"/><rect width="80" height="20" x="690" y="270" rx="1" class="block-width-90 block-index-3" style="fill: red;"/><rect width="20" height="20" x="780" y="270" rx="1" class="block-width-30 block-index-1" style="fill: red;"/><rect width="50" height="20" x="810" y="270" rx="1" class="block-width-60 block-index-3" style="fill: red;"/><rect width="80" height="20" x="900" y="270" rx="1" class="block-width-90 block-index-2" style="fill: red;"/><rect width="110" height="20" x="990" y="270" rx="1" class="block-width-120 block-index-1" style="fill: red;"/><rect width="20" height="20" x="1110" y="270" rx="1" class="block-width-30 block-index-2" style="fill: red;"/><rect width="20" height="20" x="1140" y="270" rx="1" class="block-width-30 block-index-1" style="fill: red;"/><rect width="50" height="20" x="1230" y="270" rx="1" class="block-width-60 block-index-1" style="fill: red;"/><rect width="20" height="20" x="1290" y="270" rx="1" class="block-width-30 block-index-1" style="fill: red;"/><rect width="50" height="20" x="1320" y="270" rx="1" class="block-width-60 block-index-1" style="fill: red;"/><rect width="80" height="20" x="540" y="300" rx="1" class="block-width-90 block-index-3" style="fill: red;"/><rect width="20" height="20" x="690" y="300" rx="1" class="block-width-30 block-index-2" style="fill: red;"/><rect width="110" height="20" x="720" y="300" rx="1" class="block-width-120 block-index-2" style="fill: red;"/><rect width="20" height="20" x="840" y="300" rx="1" class="block-width-30 block-index-1" style="fill: red;"/><rect width="20" height="20" x="900" y="300" rx="1" class="block-width-30 block-index-2" style="fill: red;"/><rect width="110" height="20" x="930" y="300" rx="1" class="block-width-120 block-index-2" style="fill: red;"/><rect width="20" height="20" x="1050" y="300" rx="1" class="block-width-30 block-index-1" style="fill: red;"/><rect width="50" height="20" x="1080" y="300" rx="1" class="block-width-60 block-index-2" style="fill: red;"/><rect width="20" height="20" x="1140" y="300" rx="1" class="block-width-30 block-index-1" style="fill: red;"/><rect width="20" height="20" x="1200" y="300" rx="1" class="block-width-30 block-index-2" style="fill: red;"/><rect width="80" height="20" x="1230" y="300" rx="1" class="block-width-90 block-index-3" style="fill: red;"/><rect width="20" height="20" x="1320" y="300" rx="1" class="block-width-30 block-index-1" style="fill: red;"/><rect width="80" height="20" x="540" y="330" rx="1" class="block-width-90 block-index-3" style="fill: red;"/><rect width="20" height="20" x="690" y="330" rx="1" class="block-width-30 block-index-2" style="fill: red;"/><rect width="80" height="20" x="720" y="330" rx="1" class="block-width-90 block-index-2" style="fill: red;"/><rect width="20" height="20" x="810" y="330" rx="1" class="block-width-30 block-index-1" style="fill: red;"/><rect width="20" height="20" x="870" y="330" rx="1" class="block-width-30 block-index-2" style="fill: red;"/><rect width="80" height="20" x="900" y="330" rx="1" class="block-width-90 block-index-3" style="fill: red;"/><rect width="50" height="20" x="990" y="330" rx="1" class="block-width-60 block-index-1" style="fill: red;"/><rect width="20" height="20" x="1050" y="330" rx="1" class="block-width-30 block-index-1" style="fill: red;"/><rect width="110" height="20" x="1080" y="330" rx="1" class="block-width-120 block-index-1" style="fill: red;"/><rect width="50" height="20" x="1200" y="330" rx="1" class="block-width-60 block-index-1" style="fill: red;"/><rect width="20" height="20" x="1260" y="330" rx="1" class="block-width-30 block-index-2" style="fill: red;"/><rect width="50" height="20" x="1290" y="330" rx="1" class="block-width-60 block-index-1" style="fill: red;"/><rect width="50" height="20" x="540" y="360" rx="1" class="block-width-60 block-index-3" style="fill: red;"/><rect width="20" height="20" x="600" y="360" rx="1" class="block-width-30 block-index-2" style="fill: red;"/><rect width="110" height="20" x="690" y="360" rx="1" class="block-width-120 block-index-1" style="fill: red;"/><rect width="20" height="20" x="810" y="360" rx="1" class="block-width-30 block-index-2" style="fill: red;"/><rect width="80" height="20" x="840" y="360" rx="1" class="block-width-90 block-index-3" style="fill: red;"/><rect width="20" height="20" x="930" y="360" rx="1" class="block-width-30 block-index-2" style="fill: red;"/><rect width="110" height="20" x="960" y="360" rx="1" class="block-width-120 block-index-2" style="fill: red;"/><rect width="50" height="20" x="1080" y="360" rx="1" class="block-width-60 block-index-1" style="fill: red;"/><rect width="20" height="20" x="1140" y="360" rx="1" class="block-width-30 block-index-1" style="fill: red;"/><rect width="20" height="20" x="1170" y="360" rx="1" class="block-width-30 block-index-2" style="fill: red;"/><rect width="80" height="20" x="1260" y="360" rx="1" class="block-width-90 block-index-3" style="fill: red;"/><rect width="20" height="20" x="540" y="390" rx="1" class="block-width-30 block-index-1" style="fill: red;"/><rect width="50" height="20" x="570" y="390" rx="1" class="block-width-60 block-index-3" style="fill: red;"/><rect width="80" height="20" x="660" y="390" rx="1" class="block-width-90 block-index-1" style="fill: red;"/><rect width="20" height="20" x="750" y="390" rx="1" class="block-width-30 block-index-2" style="fill: red;"/><rect width="110" height="20" x="780" y="390" rx="1" class="block-width-120 block-index-2" style="fill: red;"/><rect width="20" height="20" x="900" y="390" rx="1" class="block-width-30 block-index-2" style="fill: red;"/><rect width="80" height="20" x="930" y="390" rx="1" class="block-width-90 block-index-3" style="fill: red;"/><rect width="20" height="20" x="1020" y="390" rx="1" class="block-width-30 block-index-1" style="fill: red;"/><rect width="50" height="20" x="1050" y="390" rx="1" class="block-width-60 block-index-2" style="fill: red;"/><rect width="80" height="20" x="1110" y="390" rx="1" class="block-width-90 block-index-1" style="fill: red;"/><rect width="20" height="20" x="1200" y="390" rx="1" class="block-width-30 block-index-1" style="fill: red;"/><rect width="80" height="20" x="1230" y="390" rx="1" class="block-width-90 block-index-2" style="fill: red;"/><rect width="50" height="20" x="510" y="420" rx="1" class="block-width-60 block-index-2" style="fill: red;"/><rect width="110" height="20" x="570" y="420" rx="1" class="block-width-120 block-index-1" style="fill: red;"/><rect width="50" height="20" x="690" y="420" rx="1" class="block-width-60 block-index-2" style="fill: red;"/><rect width="110" height="20" x="750" y="420" rx="1" class="block-width-120 block-index-2" style="fill: red;"/><rect width="80" height="20" x="870" y="420" rx="1" class="block-width-90 block-index-3" style="fill: red;"/><rect width="20" height="20" x="960" y="420" rx="1" class="block-width-30 block-index-1" style="fill: red;"/><rect width="80" height="20" x="990" y="420" rx="1" class="block-width-90 block-index-1" style="fill: red;"/><rect width="50" height="20" x="1080" y="420" rx="1" class="block-width-60 block-index-1" style="fill: red;"/><rect width="80" height="20" x="1140" y="420" rx="1" class="block-width-90 block-index-2" style="fill: red;"/><rect width="20" height="20" x="1230" y="420" rx="1" class="block-width-30 block-index-1" style="fill: red;"/><rect width="110" height="20" x="600" y="450" rx="1" class="block-width-120 block-index-1" style="fill: red;"/><rect width="20" height="20" x="720" y="450" rx="1" class="block-width-30 block-index-2" style="fill: red;"/><rect width="80" height="20" x="750" y="450" rx="1" class="block-width-90 block-index-2" style="fill: red;"/><rect width="50" height="20" x="840" y="450" rx="1" class="block-width-60 block-index-2" style="fill: red;"/><rect width="80" height="20" x="900" y="450" rx="1" class="block-width-90 block-index-2" style="fill: red;"/><rect width="50" height="20" x="990" y="450" rx="1" class="block-width-60 block-index-1" style="fill: red;"/><rect width="20" height="20" x="1050" y="450" rx="1" class="block-width-30 block-index-2" style="fill: red;"/><rect width="110" height="20" x="1080" y="450" rx="1" class="block-width-120 block-index-1" style="fill: red;"/><rect width="50" height="20" x="1200" y="450" rx="1" class="block-width-60 block-index-2" style="fill: red;"/><rect width="50" height="20" x="630" y="480" rx="1" class="block-width-60 block-index-1" style="fill: red;"/><rect width="80" height="20" x="690" y="480" rx="1" class="block-width-90 block-index-1" style="fill: red;"/><rect width="110" height="20" x="780" y="480" rx="1" class="block-width-120 block-index-2" style="fill: red;"/><rect width="20" height="20" x="900" y="480" rx="1" class="block-width-30 block-index-1" style="fill: red;"/><rect width="50" height="20" x="930" y="480" rx="1" class="block-width-60 block-index-3" style="fill: red;"/><rect width="20" height="20" x="990" y="480" rx="1" class="block-width-30 block-index-2" style="fill: red;"/><rect width="20" height="20" x="1020" y="480" rx="1" class="block-width-30 block-index-1" style="fill: red;"/><rect width="50" height="20" x="1080" y="480" rx="1" class="block-width-60 block-index-2" style="fill: red;"/><rect width="80" height="20" x="1140" y="480" rx="1" class="block-width-90 block-index-1" style="fill: red;"/><rect width="20" height="20" x="1230" y="480" rx="1" class="block-width-30 block-index-1" style="fill: red;"/><rect width="20" height="20" x="1260" y="480" rx="1" class="block-width-30 block-index-2" style="fill: red;"/><rect width="110" height="20" x="630" y="510" rx="1" class="block-width-120 block-index-1" style="fill: red;"/><rect width="20" height="20" x="750" y="510" rx="1" class="block-width-30 block-index-1" style="fill: red;"/><rect width="80" height="20" x="780" y="510" rx="1" class="block-width-90 block-index-3" style="fill: red;"/><rect width="110" height="20" x="870" y="510" rx="1" class="block-width-120 block-index-1" style="fill: red;"/><rect width="80" height="20" x="990" y="510" rx="1" class="block-width-90 block-index-1" style="fill: red;"/><rect width="50" height="20" x="1200" y="510" rx="1" class="block-width-60 block-index-3" style="fill: red;"/><rect width="20" height="20" x="1260" y="510" rx="1" class="block-width-30 block-index-2" style="fill: red;"/><rect width="110" height="20" x="660" y="540" rx="1" class="block-width-120 block-index-1" style="fill: red;"/><rect width="20" height="20" x="780" y="540" rx="1" class="block-width-30 block-index-2" style="fill: red;"/><rect width="20" height="20" x="810" y="540" rx="1" class="block-width-30 block-index-1" style="fill: red;"/><rect width="50" height="20" x="930" y="540" rx="1" class="block-width-60 block-index-2" style="fill: red;"/><rect width="20" height="20" x="990" y="540" rx="1" class="block-width-30 block-index-1" style="fill: red;"/><rect width="50" height="20" x="1020" y="540" rx="1" class="block-width-60 block-index-3" style="fill: red;"/><rect width="20" height="20" x="1080" y="540" rx="1" class="block-width-30 block-index-1" style="fill: red;"/><rect width="20" height="20" x="1110" y="540" rx="1" class="block-width-30 block-index-2" style="fill: red;"/><rect width="80" height="20" x="1200" y="540" rx="1" class="block-width-90 block-index-3" style="fill: red;"/><rect width="20" height="20" x="690" y="570" rx="1" class="block-width-30 block-index-1" style="fill: red;"/><rect width="50" height="20" x="720" y="570" rx="1" class="block-width-60 block-index-3" style="fill: red;"/><rect width="80" height="20" x="840" y="570" rx="1" class="block-width-90 block-index-2" style="fill: red;"/><rect width="110" height="20" x="960" y="570" rx="1" class="block-width-120 block-index-1" style="fill: red;"/><rect width="20" height="20" x="1110" y="570" rx="1" class="block-width-30 block-index-1" style="fill: red;"/><rect width="20" height="20" x="1140" y="570" rx="1" class="block-width-30 block-index-2" style="fill: red;"/><rect width="50" height="20" x="1200" y="570" rx="1" class="block-width-60 block-index-1" style="fill: red;"/><rect width="20" height="20" x="1260" y="570" rx="1" class="block-width-30 block-index-1" style="fill: red;"/><rect width="80" height="20" x="600" y="600" rx="1" class="block-width-90 block-index-3" style="fill: red;"/><rect width="20" height="20" x="690" y="600" rx="1" class="block-width-30 block-index-1" style="fill: red;"/><rect width="20" height="20" x="720" y="600" rx="1" class="block-width-30 block-index-2" style="fill: red;"/><rect width="80" height="20" x="840" y="600" rx="1" class="block-width-90 block-index-1" style="fill: red;"/><rect width="20" height="20" x="930" y="600" rx="1" class="block-width-30 block-index-1" style="fill: red;"/><rect width="50" height="20" x="960" y="600" rx="1" class="block-width-60 block-index-3" style="fill: red;"/><rect width="20" height="20" x="1110" y="600" rx="1" class="block-width-30 block-index-2" style="fill: red;"/><rect width="80" height="20" x="1140" y="600" rx="1" class="block-width-90 block-index-3" style="fill: red;"/><rect width="20" height="20" x="1230" y="600" rx="1" class="block-width-30 block-index-2" style="fill: red;"/><rect width="50" height="20" x="600" y="630" rx="1" class="block-width-60 block-index-1" style="fill: red;"/><rect width="80" height="20" x="660" y="630" rx="1" class="block-width-90 block-index-1" style="fill: red;"/><rect width="50" height="20" x="750" y="630" rx="1" class="block-width-60 block-index-1" style="fill: red;"/><rect width="20" height="20" x="840" y="630" rx="1" class="block-width-30 block-index-1" style="fill: red;"/><rect width="50" height="20" x="870" y="630" rx="1" class="block-width-60 block-index-1" style="fill: red;"/><rect width="50" height="20" x="960" y="630" rx="1" class="block-width-60 block-index-3" style="fill: red;"/><rect width="20" height="20" x="1020" y="630" rx="1" class="block-width-30 block-index-2" style="fill: red;"/><rect width="110" height="20" x="1110" y="630" rx="1" class="block-width-120 block-index-1" style="fill: red;"/><rect width="50" height="20" x="1230" y="630" rx="1" class="block-width-60 block-index-1" style="fill: red;"/><rect width="20" height="20" x="1290" y="630" rx="1" class="block-width-30 block-index-1" style="fill: red;"/></g></svg>