<svg
    id="wales"
    xmlns="http://www.w3.org/2000/svg"
    xmlns:svg="http://www.w3.org/2000/svg"
    viewBox="0 0 245.83 309"
>
    <g id="layer1">
        <path
            id="path43"
            d="m 32.676243,263.64088 c 0.609477,-1.16774 1.220862,-2.3395 1.830339,-3.50725 -2.974689,-0.20684 -5.958315,-0.41469 -8.933004,-0.62153 -2.035171,-0.36247 -4.076367,-0.72495 -6.111538,-1.08742 -1.997418,0.23495 -4.000961,0.47192 -5.998379,0.70688 -0.579354,0.95789 -1.160516,1.91879 -1.73987,2.87668 -1.59207,-1.57439 -3.1889594,-3.15482 -4.7810288,-4.72921 1.2953638,-1.44487 2.5945429,-2.89376 3.8899068,-4.33864 2.891853,-1.51114 5.792441,-3.02629 8.684293,-4.53744 -0.863609,-3.79743 -1.729729,-7.60691 -2.593339,-11.40434 -2.287195,-0.29018 -4.581218,-0.58237 -6.868414,-0.87255 -3.2808309,0.39159 -6.571603,0.78519 -9.85243481,1.17678 -0.0221901,-2.0654 -0.0444808,-4.13781 -0.0666709,-6.20321 2.94215561,-1.48705 5.89314691,-2.9781 8.83530251,-4.46515 2.3463342,-1.22798 4.6996992,-2.46099 7.0460352,-3.68899 1.705932,-1.32438 3.417087,-2.65278 5.12302,-3.97717 0.489489,-2.14772 0.980484,-4.30248 1.469974,-6.4502 2.8298,0.67172 5.668237,1.34646 8.498037,2.0182 1.97342,-0.72896 3.952764,-1.46094 5.926184,-2.1899 2.423148,-0.245 4.853425,-0.48999 7.276573,-0.735 2.188394,-2.20897 4.383414,-4.42397 6.571809,-6.63294 1.58484,-1.75314 3.174401,-3.51028 4.759241,-5.2634 0.746634,-0.52915 1.495578,-1.06131 2.242212,-1.59046 3.258945,-0.83038 6.52773,-1.66276 9.786674,-2.49314 2.79506,-0.6426 5.598554,-1.28722 8.393613,-1.92984 2.609606,-2.14874 5.227134,-4.30449 7.836728,-6.45323 2.392709,-0.9599 4.79245,-1.92381 7.185159,-2.88371 3.401808,-2.29634 6.812648,-4.6007 10.214465,-6.89704 2.10957,-2.79435 4.22618,-5.59774 6.33575,-8.3921 1.87762,-4.2302 3.76228,-8.47344 5.63992,-12.70363 0.90065,-3.99223 1.80333,-7.99649 2.70399,-11.98872 0.59341,-2.33449 1.18782,-4.67701 1.78123,-7.01149 2.83251,-1.82643 5.67306,-3.65787 8.50557,-5.4843 -3.63778,0.85648 -7.28762,1.71598 -10.9254,2.57246 -1.16072,-2.89376 -2.32545,-5.79656 -3.48617,-8.69032 -0.26407,-2.23609 -0.52915,-4.48021 -0.79322,-6.71629 1.73505,-3.28737 3.47612,-6.58477 5.21118,-9.87213 1.28623,-0.3434 2.57546,-0.68879 3.86169,-1.03219 2.2883,-1.73807 4.58263,-3.48216 6.87092,-5.22022 -3.24618,1.475 -6.50342,2.95301 -9.74961,4.428 -2.22605,-3.01425 -4.45813,-6.03855 -6.68417,-9.05277 0.13455,-2.492505 0.26809,-4.992662 0.40263,-7.485191 -1.03521,-3.102409 -2.07242,-6.214255 -3.10762,-9.316664 2.0684,-0.961005 4.14183,-1.924823 6.21023,-2.885828 -0.66168,0.100608 -1.32638,0.201418 -1.98807,0.302027 -1.50312,0.1968 -3.00924,0.394303 -4.51234,0.591102 -2.84155,-0.441493 -5.69214,-0.884193 -8.533681,-1.325688 -3.590571,0.958496 -7.191184,1.920004 -10.781758,2.878499 -1.844484,0.785292 -3.694996,1.572993 -5.539479,2.358284 -2.085464,1.805438 -4.176258,3.616398 -6.261232,5.421836 -0.442297,2.417524 -0.886,4.842278 -1.328298,7.2598 -1.852629,-0.936303 -3.710681,-1.875418 -5.56331,-2.811724 -3.355337,0.581263 -6.720713,1.164232 -10.07605,1.745495 -2.383085,0.750948 -4.773399,1.503905 -7.156484,2.254941 0.824551,-2.652558 1.651712,-5.313171 2.476263,-7.96575 1.705933,-2.463513 3.417088,-4.934555 5.123021,-7.398067 2.612116,-2.234481 5.231963,-4.475589 7.844079,-6.71007 2.559703,-0.848951 5.127237,-1.700512 7.68694,-2.549462 2.158472,-2.387201 4.32317,-4.781431 6.481932,-7.168634 2.325438,-1.92412 4.658906,-3.854063 6.984345,-5.778183 0.08233,-3.771126 0.16467,-7.553598 0.247004,-11.324724 1.080385,0.256743 2.163782,0.514189 3.244167,0.770933 1.598487,-2.659107 3.202999,-5.326146 4.801483,-7.985253 2.528264,-2.930911 5.063558,-5.870658 7.591838,-8.80157 2.71704,-0.896443 5.44313,-1.795698 8.16017,-2.692141 3.45805,-1.208311 6.92715,-2.420136 10.3852,-3.628447 3.42592,-1.45923 6.86189,-2.922978 10.28781,-4.382209 1.3033,1.681032 2.60961,3.367084 3.9129,5.048116 0.80929,-0.475132 1.62059,-0.951768 2.42988,-1.426899 -1.86558,-3.16918 -3.73619,-6.347798 -5.60177,-9.516978 1.00107,0.02932 2.00616,0.05884 3.00723,0.08816 2.85359,0.778364 5.71623,1.558936 8.56982,2.337299 3.56951,0.932992 7.15106,1.868896 10.72057,2.801887 3.7412,-1.051874 7.49245,-2.106762 11.23366,-3.158636 5.8809,-2.076339 11.77887,-4.158802 17.65977,-6.235141 2.72307,2.676478 5.45416,5.361088 8.17723,8.037566 4.2804,3.382346 8.57385,6.774934 12.85425,10.157279 0.1265,-0.113159 0.25402,-0.226621 0.38054,-0.33978 -0.2962,-0.851059 -0.59441,-1.704729 -0.89062,-2.555787 3.51228,1.623297 7.0366,3.251614 10.54887,4.874912 1.3776,2.656697 2.76022,5.321426 4.13782,7.978124 -0.91673,1.984867 -1.83546,3.975758 -2.75219,5.960624 2.29935,1.018137 4.60471,2.039187 6.90406,3.057325 0.38557,2.143913 0.77113,4.294253 1.1567,6.438166 0.29219,2.016495 0.58438,4.039115 0.87657,6.05561 2.30134,1.669285 4.61073,3.343488 6.91208,5.012772 2.16781,2.048426 4.34065,4.103076 6.50846,6.1515 -2.41983,2.755599 -4.8467,5.519332 -7.26654,8.274931 -2.40075,-2.362903 -4.80854,-4.732935 -7.2093,-7.095838 -3.02127,-0.990526 -6.05059,-1.984064 -9.07186,-2.97459 -2.22003,1.869599 -4.44708,3.744921 -6.6671,5.614518 -2.57647,1.763267 -5.15997,3.531754 -7.73645,5.29502 -0.94181,2.273641 -1.88665,4.554208 -2.82848,6.827849 0.99001,3.11034 1.98406,6.230019 2.97408,9.340336 1.88968,0.827357 3.78538,1.656712 5.67506,2.484063 2.10255,1.61557 4.21012,3.23516 6.31266,4.85072 0.62855,0.64563 1.25811,1.29325 1.88667,1.93887 -2.22204,1.60151 -4.45008,3.20804 -6.67212,4.80955 -0.90568,2.80139 -1.81538,5.61181 -2.72106,8.4132 -1.81939,2.93392 -3.64381,5.87587 -5.4632,8.8098 0.21086,2.66684 0.42272,5.34171 0.63358,8.00854 2.52425,-1.79227 5.05654,-3.58958 7.58081,-5.38187 1.42277,1.87763 2.84958,3.76029 4.27236,5.63792 -2.23509,1.35249 -4.4782,2.708 -6.71329,4.0605 -3.75325,1.19185 -7.51855,2.38871 -11.2718,3.58055 0.33134,3.32853 0.66269,6.66609 0.99403,9.99462 2.52928,1.8696 5.0676,3.74522 7.59687,5.61481 3.40384,0.95891 6.81772,1.91981 10.22154,2.87871 -0.43677,2.16178 -0.87455,4.3306 -1.31132,6.49238 1.33944,1.94189 2.6839,3.88981 4.02335,5.83171 -2.5594,0.9599 -5.12784,1.92381 -7.68724,2.88371 -1.51617,2.60358 -3.03734,5.2142 -4.5535,7.81778 0.54119,1.98005 1.0834,3.96511 1.62459,5.94516 -0.96291,2.04631 -1.92883,4.09765 -2.89175,6.14396 -0.12852,2.65882 -0.25704,5.32665 -0.38557,7.98546 1.30732,4.06351 2.61764,8.14008 3.92496,12.2036 2.49714,3.0273 5.00233,6.06364 7.49948,9.09095 2.86966,-0.0512 5.74937,-0.10243 8.61903,-0.15363 1.06332,0.44481 2.12965,0.88962 3.19297,1.33442 2.64475,2.02724 5.29652,4.05951 7.94128,6.08674 2.3154,1.59548 4.63885,3.19498 6.95426,4.79047 0.90768,1.7481 1.81739,3.50123 2.72507,5.24933 0.18476,3.01826 0.3695,6.04457 0.55426,9.06283 -0.0904,2.74817 -0.18074,5.50438 -0.27111,8.25254 0.0632,1.72401 0.12551,3.45304 0.18877,5.17704 0.19881,2.11158 0.39761,4.22818 0.59643,6.33977 -2.84657,2.00716 -5.70318,4.01933 -8.54975,6.02649 -4.7724,2.24412 -9.55885,4.49426 -14.33125,6.73838 -1.66677,-1.27417 -3.33755,-2.55237 -5.00433,-3.82654 -1.09445,1.32438 -2.19291,2.65378 -3.28736,3.97816 -3.41287,2.04832 -6.83679,4.10168 -10.24966,6.15 -1.84048,2.31139 -3.68597,4.63081 -5.52646,6.94221 -1.73404,2.18689 -3.47411,4.38081 -5.20816,6.56769 -2.18187,0.60144 -4.37177,1.20389 -6.55364,1.80534 -3.68296,0.16668 -7.37698,0.33235 -11.05995,0.49902 -4.35369,-0.65968 -8.72144,-1.32137 -13.07514,-1.98105 -2.62567,-3.1508 -5.25937,-6.31164 -7.88504,-9.46245 -2.66684,-1.32439 -5.34271,-2.65379 -8.00956,-3.97817 -1.60151,-3.42492 -3.20703,-6.86088 -4.80854,-10.2858 -0.69281,-1.3284 -1.38764,-2.66181 -2.08045,-3.99022 -1.87161,-1.83747 -3.74824,-3.68096 -5.61984,-5.51842 -2.29935,0.24298 -4.60471,0.48798 -6.90406,0.73097 -1.21795,2.41983 -2.44092,4.8477 -3.65887,7.26753 -2.68993,0.50405 -5.3889,1.01111 -8.07883,1.51516 -3.0263,-0.0371 -6.06063,-0.0743 -9.08693,-0.11145 -1.59348,1.01211 -3.19298,2.02824 -4.78646,3.04035 -2.5363,-1.68284 -5.080625,-3.3707 -7.616918,-5.05353 1.125568,-2.98213 2.253145,-5.97429 3.378713,-8.95641 0.964916,0.0823 1.932844,0.16467 2.897765,0.24701 2.69295,-0.73399 5.39493,-1.46897 8.08787,-2.20296 1.25008,-0.95688 2.50317,-1.91678 3.75325,-2.87367 -2.22605,-0.57835 -4.46012,-1.15771 -6.68618,-1.73606 -1.95996,-0.32231 -3.92696,-0.64562 -5.886915,-0.96793 -2.581479,0.25302 -5.171992,0.50706 -7.753468,0.76008 -1.302283,-2.77226 -2.608587,-5.55156 -3.91087,-8.32382 0.14358,-0.42072 0.287163,-0.84343 0.430747,-1.26414 0.339377,-2.99818 0.678753,-6.0054 1.018132,-9.00359 -2.094501,1.99009 -4.196029,3.9872 -6.290529,5.97729 -1.197862,-1.08541 -2.398737,-2.17483 -3.596599,-3.26024 -0.208749,2.33749 -0.4182,4.68202 -0.626948,7.01952 -4.070242,-0.16667 -8.152834,-0.33436 -12.223076,-0.50104 -3.247799,1.41676 -6.505338,2.83653 -9.753138,4.25329 -0.570116,2.47204 -1.14194,4.95212 -1.712057,7.42417 -2.123431,1.1818 -4.253185,2.36763 -6.376616,3.54943 -2.373746,-0.16065 -4.754722,-0.32232 -7.12847,-0.48297 -1.681935,1.53825 -3.368892,3.08152 -5.050827,4.61977 -2.256973,-0.11546 -4.520873,-0.23194 -6.777846,-0.3474 -1.833451,-1.40873 -3.672525,-2.82047 -5.505976,-4.22919 -1.723204,-2.40176 -3.451729,-4.80954 -5.174932,-7.21131 1.760556,0.46489 3.526533,0.92978 5.287087,1.39467 2.042903,-0.55024 4.09183,-1.10248 6.134732,-1.65272 1.090934,0.30826 2.185182,0.61651 3.276115,0.92476 -0.473023,-0.17571 -0.947351,-0.35344 -1.420373,-0.52915 z M 75.13028,34.051562 c -1.645989,-2.340613 -3.296798,-4.688153 -4.942788,-7.028766 -0.708981,-1.71035 -1.419971,-3.425922 -2.128952,-5.136274 l 1.196462,-3.795324 c 0.03796,-2.404071 0.07591,-4.81527 0.113863,-7.21934 0.620924,-2.3295659 1.243855,-4.6660591 1.864778,-6.9955758 1.641372,-0.4890676 3.287561,-0.9796112 4.928932,-1.4686789 1.89701,-0.7405094 3.799943,-1.48324793 5.69664,-2.22375739 2.662807,0.5169509 5.333646,1.03544809 7.996453,1.55239899 l 5.988304,2.5471519 c 0.2952,2.0401804 0.590396,4.0865954 0.885593,6.1267852 1.449887,2.081358 2.904791,4.168942 4.354685,6.250301 1.83144,0.87104 3.66891,1.744791 5.50035,2.615831 3.36567,-0.434566 6.7414,-0.870437 10.10708,-1.305004 -1.05228,2.157368 -2.10757,4.321363 -3.15985,6.478731 -2.42887,2.409191 -4.86477,4.825611 -7.29364,7.234803 -1.99912,1.953538 -4.00427,3.912801 -6.0034,5.866341 -2.942942,1.770394 -5.894922,3.546212 -8.837867,5.316607 -2.215991,0.230235 -4.440018,0.461074 -6.656012,0.691309 0.321303,-2.296131 0.644618,-4.599191 0.96592,-6.895323 -1.9469,1.260925 -3.899825,2.525564 -5.846729,3.786489 -1.767985,-1.657035 -3.541291,-3.318989 -5.309277,-4.976023 l 0.306144,-0.751555 z M 61.913466,17.199775 c 1.662958,1.101577 3.330836,2.206367 4.993795,3.307943 0.459668,1.558936 0.920742,3.12249 1.38041,4.681426 -0.467299,0.972553 -0.935904,1.948017 -1.403203,2.920569 -0.956688,-1.72993 -1.916187,-3.465182 -2.872876,-5.195113 -1.777121,-0.683176 -3.559566,-1.36826 -5.336688,-2.051437 0.460371,-1.270362 0.922047,-2.544541 1.382418,-3.814904 0.618112,0.05041 1.238032,0.101111 1.856144,0.151516 z"
        />
    </g>
    <g id="layer2"></g>
</svg>